<?xml version="1.0" encoding="UTF-8"?>
<svg width="451px" height="30px" viewBox="0 0 451 30" version="1.1" xmlns="http://www.w3.org/2000/svg" xmlns:xlink="http://www.w3.org/1999/xlink">
    <g id="Page-1" stroke="none" stroke-width="1" fill="none" fill-rule="evenodd">
        <g id="logo" fill="#000000" fill-rule="nonzero">
            <path d="M21.9530869,14.7883646 C23.4803596,15.3338192 24.6803596,16.1701828 25.5530869,17.2974555 C26.4076324,18.4247283 26.8349051,19.7883646 26.8349051,21.3883646 C26.8349051,23.7338192 25.8985415,25.5429101 24.0258142,26.8156374 C22.1349051,28.0883646 19.4076324,28.7247283 15.843996,28.7247283 L1.41672327,28.7247283 L1.41672327,1.99745555 L15.0803596,1.99745555 C18.4985415,1.99745555 21.0985415,2.63381918 22.8803596,3.90654645 C24.6621778,5.16109191 25.5530869,6.852001 25.5530869,8.97927373 C25.5530869,10.252001 25.2349051,11.3974555 24.5985415,12.4156374 C23.9803596,13.4156374 23.0985415,14.2065465 21.9530869,14.7883646 Z M14.0985415,7.452001 L8.8894505,7.452001 L8.8894505,12.6065465 L14.0985415,12.6065465 C16.643996,12.6065465 17.9167233,11.7429101 17.9167233,10.0156374 C17.9167233,8.30654645 16.643996,7.452001 14.0985415,7.452001 Z M15.243996,23.2701828 C17.8803596,23.2701828 19.1985415,22.3701828 19.1985415,20.5701828 C19.1985415,18.752001 17.8803596,17.8429101 15.243996,17.8429101 L8.8894505,17.8429101 L8.8894505,23.2701828 L15.243996,23.2701828 Z M44.2621778,29.2701828 C41.4258142,29.2701828 38.8803596,28.6701828 36.6258142,27.4701828 C34.3894505,26.2701828 32.6258142,24.6156374 31.3349051,22.5065465 C30.043996,20.3974555 29.3985415,18.0156374 29.3985415,15.3610919 C29.3985415,12.7247283 30.043996,10.3429101 31.3349051,8.21563736 C32.6258142,6.10654645 34.3894505,4.452001 36.6258142,3.252001 C38.8803596,2.07018282 41.4258142,1.47927373 44.2621778,1.47927373 C47.0803596,1.47927373 49.6167233,2.07018282 51.8712687,3.252001 C54.1258142,4.452001 55.8985415,6.10654645 57.1894505,8.21563736 C58.4621778,10.3429101 59.0985415,12.7247283 59.0985415,15.3610919 C59.0985415,18.0156374 58.4621778,20.3974555 57.1894505,22.5065465 C55.8985415,24.6156374 54.1258142,26.2701828 51.8712687,27.4701828 C49.6167233,28.6701828 47.0803596,29.2701828 44.2621778,29.2701828 Z M44.2621778,22.9974555 C45.6076324,22.9974555 46.8258142,22.6792737 47.9167233,22.0429101 C49.0076324,21.4065465 49.8712687,20.5065465 50.5076324,19.3429101 C51.143996,18.1974555 51.4621778,16.8701828 51.4621778,15.3610919 C51.4621778,13.8701828 51.143996,12.5429101 50.5076324,11.3792737 C49.8712687,10.2156374 49.0076324,9.31563736 47.9167233,8.67927373 C46.8258142,8.04291009 45.6076324,7.72472827 44.2621778,7.72472827 C42.9167233,7.72472827 41.6894505,8.04291009 40.5803596,8.67927373 C39.4894505,9.31563736 38.6258142,10.2156374 37.9894505,11.3792737 C37.3530869,12.5429101 37.0349051,13.8701828 37.0349051,15.3610919 C37.0349051,16.8701828 37.3530869,18.1974555 37.9894505,19.3429101 C38.6258142,20.5065465 39.4894505,21.4065465 40.5803596,22.0429101 C41.6894505,22.6792737 42.9167233,22.9974555 44.2621778,22.9974555 Z M72.4621778,29.2701828 C70.2985415,29.2701828 68.1985415,28.9974555 66.1621778,28.452001 C64.1258142,27.9247283 62.4712687,27.2156374 61.1985415,26.3247283 L63.6803596,20.7610919 C64.8803596,21.5429101 66.2712687,22.1792737 67.8530869,22.6701828 C69.4349051,23.1429101 70.9894505,23.3792737 72.5167233,23.3792737 C75.4076324,23.3792737 76.8530869,22.652001 76.8530869,21.1974555 C76.8530869,20.4338192 76.443996,19.8701828 75.6258142,19.5065465 C74.7894505,19.1429101 73.4621778,18.752001 71.643996,18.3338192 C69.6258142,17.9156374 67.943996,17.452001 66.5985415,16.9429101 C65.2530869,16.452001 64.0894505,15.6610919 63.1076324,14.5701828 C62.143996,13.4792737 61.6621778,11.9974555 61.6621778,10.1247283 C61.6621778,8.50654645 62.1076324,7.04291009 62.9985415,5.73381918 C63.8894505,4.42472827 65.2167233,3.38836464 66.9803596,2.62472827 C68.7621778,1.86109191 70.9349051,1.47927373 73.4985415,1.47927373 C75.2621778,1.47927373 76.9985415,1.67018282 78.7076324,2.052001 C80.3985415,2.452001 81.8985415,3.03381918 83.2076324,3.79745555 L80.8621778,9.41563736 C78.3167233,8.03381918 75.8530869,7.34291009 73.4712687,7.34291009 C71.9621778,7.34291009 70.8621778,7.57018282 70.1712687,8.02472827 C69.4985415,8.46109191 69.1621778,9.03381918 69.1621778,9.74291009 C69.1621778,10.4701828 69.5621778,11.0065465 70.3621778,11.352001 C71.1803596,11.7156374 72.4985415,12.0883646 74.3167233,12.4701828 C76.3530869,12.9065465 78.0349051,13.3701828 79.3621778,13.8610919 C80.7076324,14.352001 81.8712687,15.1429101 82.8530869,16.2338192 C83.8167233,17.3065465 84.2985415,18.7701828 84.2985415,20.6247283 C84.2985415,22.2429101 83.8530869,23.6974555 82.9621778,24.9883646 C82.0712687,26.2792737 80.7349051,27.3156374 78.9530869,28.0974555 C77.1712687,28.8792737 75.0076324,29.2701828 72.4621778,29.2701828 Z M97.1712687,29.2701828 C95.0076324,29.2701828 92.9076324,28.9974555 90.8712687,28.452001 C88.8349051,27.9247283 87.1803596,27.2156374 85.9076324,26.3247283 L88.3894505,20.7610919 C89.5894505,21.5429101 90.9803596,22.1792737 92.5621778,22.6701828 C94.143996,23.1429101 95.6985415,23.3792737 97.2258142,23.3792737 C100.116723,23.3792737 101.562178,22.652001 101.562178,21.1974555 C101.562178,20.4338192 101.153087,19.8701828 100.334905,19.5065465 C99.498541,19.1429101 98.1621778,18.752001 96.3258142,18.3338192 C94.3258142,17.9156374 92.6530869,17.452001 91.3076324,16.9429101 C89.943996,16.452001 88.7803596,15.6610919 87.8167233,14.5701828 C86.8530869,13.4792737 86.3712687,11.9974555 86.3712687,10.1247283 C86.3712687,8.50654645 86.8167233,7.04291009 87.7076324,5.73381918 C88.5985415,4.42472827 89.9258142,3.38836464 91.6894505,2.62472827 C93.4712687,1.86109191 95.643996,1.47927373 98.2076324,1.47927373 C99.971269,1.47927373 101.698541,1.67018282 103.389451,2.052001 C105.098541,2.452001 106.607632,3.03381918 107.916723,3.79745555 L105.571269,9.41563736 C103.025814,8.03381918 100.562178,7.34291009 98.1803596,7.34291009 C96.6712687,7.34291009 95.5712687,7.57018282 94.8803596,8.02472827 C94.1894505,8.46109191 93.843996,9.03381918 93.843996,9.74291009 C93.843996,10.4701828 94.2530869,11.0065465 95.0712687,11.352001 C95.8894505,11.7156374 97.1985415,12.0883646 98.998541,12.4701828 C101.034905,12.9065465 102.725814,13.3701828 104.071269,13.8610919 C105.398541,14.352001 106.553087,15.1429101 107.534905,16.2338192 C108.516723,17.3065465 109.007632,18.7701828 109.007632,20.6247283 C109.007632,22.2429101 108.562178,23.6974555 107.671269,24.9883646 C106.78036,26.2792737 105.443996,27.3156374 103.662178,28.0974555 C101.88036,28.8792737 99.716723,29.2701828 97.1712687,29.2701828 Z M136.934905,29.2701828 C134.134905,29.2701828 131.616723,28.6792737 129.38036,27.4974555 C127.162178,26.3156374 125.416723,24.6610919 124.143996,22.5338192 C122.871269,20.4247283 122.234905,18.0338192 122.234905,15.3610919 C122.234905,12.6883646 122.871269,10.2974555 124.143996,8.18836464 C125.416723,6.07927373 127.162178,4.43381918 129.38036,3.252001 C131.616723,2.07018282 134.134905,1.47927373 136.934905,1.47927373 C139.371269,1.47927373 141.571269,1.90654645 143.534905,2.76109191 C145.498541,3.63381918 147.125814,4.87927373 148.416723,6.49745555 L143.616723,10.8610919 C141.871269,8.77018282 139.771269,7.72472827 137.316723,7.72472827 C135.862178,7.72472827 134.562178,8.04291009 133.416723,8.67927373 C132.289451,9.31563736 131.416723,10.2156374 130.798541,11.3792737 C130.18036,12.5429101 129.871269,13.8701828 129.871269,15.3610919 C129.871269,16.8701828 130.18036,18.1974555 130.798541,19.3429101 C131.416723,20.5065465 132.289451,21.4065465 133.416723,22.0429101 C134.562178,22.6792737 135.862178,22.9974555 137.316723,22.9974555 C139.771269,22.9974555 141.871269,21.952001 143.616723,19.8610919 L148.416723,24.2247283 C147.125814,25.8610919 145.498541,27.1065465 143.534905,27.9610919 C141.571269,28.8338192 139.371269,29.2701828 136.934905,29.2701828 Z M169.634905,1.99745555 L177.216723,1.99745555 L177.216723,28.7247283 L169.634905,28.7247283 L169.634905,18.3065465 L159.325814,18.3065465 L159.325814,28.7247283 L151.771269,28.7247283 L151.771269,1.99745555 L159.325814,1.99745555 L159.325814,12.0338192 L169.634905,12.0338192 L169.634905,1.99745555 Z M190.034905,22.8883646 L203.998541,22.8883646 L203.998541,28.7247283 L182.562178,28.7247283 L182.562178,1.99745555 L203.507632,1.99745555 L203.507632,7.83381918 L190.034905,7.83381918 L190.034905,12.3610919 L201.898541,12.3610919 L201.898541,18.0065465 L190.034905,18.0065465 L190.034905,22.8883646 Z M220.553087,29.2701828 C216.571269,29.2701828 213.48036,28.1883646 211.28036,26.0247283 C209.08036,23.8610919 207.98036,20.7883646 207.98036,16.8065465 L207.98036,1.99745555 L215.534905,1.99745555 L215.534905,16.5883646 C215.534905,20.8610919 217.225814,22.9974555 220.607632,22.9974555 C223.971269,22.9974555 225.653087,20.8610919 225.653087,16.5883646 L225.653087,1.99745555 L233.098541,1.99745555 L233.098541,16.8065465 C233.098541,20.7883646 231.998541,23.8610919 229.798541,26.0247283 C227.598541,28.1883646 224.516723,29.2701828 220.553087,29.2701828 Z M256.253087,1.99745555 L263.643996,1.99745555 L263.643996,28.7247283 L257.425814,28.7247283 L245.616723,14.4883646 L245.616723,28.7247283 L238.225814,28.7247283 L238.225814,1.99745555 L244.443996,1.99745555 L256.253087,16.2338192 L256.253087,1.99745555 Z M286.907632,22.1247283 L286.907632,14.7883646 L293.589451,14.7883646 L293.589451,25.8610919 C292.062178,26.952001 290.307632,27.7974555 288.325814,28.3974555 C286.325814,28.9792737 284.334905,29.2701828 282.353087,29.2701828 C279.553087,29.2701828 277.034905,28.6792737 274.798541,27.4974555 C272.562178,26.3156374 270.807632,24.6610919 269.534905,22.5338192 C268.262178,20.4247283 267.625814,18.0338192 267.625814,15.3610919 C267.625814,12.6883646 268.262178,10.2974555 269.534905,8.18836464 C270.807632,6.07927373 272.571269,4.43381918 274.825814,3.252001 C277.098541,2.07018282 279.662178,1.47927373 282.516723,1.47927373 C285.007632,1.47927373 287.243996,1.89745555 289.225814,2.73381918 C291.207632,3.57018282 292.862178,4.77927373 294.189451,6.36109191 L289.389451,10.6974555 C287.571269,8.71563736 285.407632,7.72472827 282.898541,7.72472827 C280.607632,7.72472827 278.762178,8.41563736 277.362178,9.79745555 C275.962178,11.1974555 275.262178,13.052001 275.262178,15.3610919 C275.262178,16.8338192 275.58036,18.152001 276.216723,19.3156374 C276.853087,20.4792737 277.743996,21.3792737 278.889451,22.0156374 C280.034905,22.6701828 281.343996,22.9974555 282.816723,22.9974555 C284.271269,22.9974555 285.634905,22.7065465 286.907632,22.1247283 Z M297.734905,13.152001 L297.298541,1.99745555 L303.407632,1.99745555 L302.889451,13.152001 L297.734905,13.152001 Z M317.016723,29.2701828 C314.853087,29.2701828 312.753087,28.9974555 310.716723,28.452001 C308.68036,27.9247283 307.025814,27.2156374 305.753087,26.3247283 L308.234905,20.7610919 C309.434905,21.5429101 310.825814,22.1792737 312.407632,22.6701828 C313.989451,23.1429101 315.543996,23.3792737 317.071269,23.3792737 C319.962178,23.3792737 321.407632,22.652001 321.407632,21.1974555 C321.407632,20.4338192 320.998541,19.8701828 320.18036,19.5065465 C319.343996,19.1429101 318.016723,18.752001 316.198541,18.3338192 C314.18036,17.9156374 312.498541,17.452001 311.153087,16.9429101 C309.807632,16.452001 308.643996,15.6610919 307.662178,14.5701828 C306.698541,13.4792737 306.216723,11.9974555 306.216723,10.1247283 C306.216723,8.50654645 306.662178,7.04291009 307.553087,5.73381918 C308.443996,4.42472827 309.78036,3.38836464 311.562178,2.62472827 C313.325814,1.86109191 315.489451,1.47927373 318.053087,1.47927373 C319.816723,1.47927373 321.553087,1.67018282 323.262178,2.052001 C324.953087,2.452001 326.453087,3.03381918 327.762178,3.79745555 L325.416723,9.41563736 C322.871269,8.03381918 320.407632,7.34291009 318.025814,7.34291009 C316.516723,7.34291009 315.416723,7.57018282 314.725814,8.02472827 C314.053087,8.46109191 313.716723,9.03381918 313.716723,9.74291009 C313.716723,10.4701828 314.116723,11.0065465 314.916723,11.352001 C315.734905,11.7156374 317.053087,12.0883646 318.871269,12.4701828 C320.907632,12.9065465 322.589451,13.3701828 323.916723,13.8610919 C325.262178,14.352001 326.425814,15.1429101 327.407632,16.2338192 C328.371269,17.3065465 328.853087,18.7701828 328.853087,20.6247283 C328.853087,22.2429101 328.407632,23.6974555 327.516723,24.9883646 C326.625814,26.2792737 325.289451,27.3156374 323.507632,28.0974555 C321.725814,28.8792737 319.562178,29.2701828 317.016723,29.2701828 Z M356.78036,29.2701828 C353.98036,29.2701828 351.462178,28.6792737 349.225814,27.4974555 C347.007632,26.3156374 345.262178,24.6610919 343.989451,22.5338192 C342.716723,20.4247283 342.08036,18.0338192 342.08036,15.3610919 C342.08036,12.6883646 342.716723,10.2974555 343.989451,8.18836464 C345.262178,6.07927373 347.007632,4.43381918 349.225814,3.252001 C351.462178,2.07018282 353.98036,1.47927373 356.78036,1.47927373 C359.216723,1.47927373 361.416723,1.90654645 363.38036,2.76109191 C365.343996,3.63381918 366.971269,4.87927373 368.262178,6.49745555 L363.462178,10.8610919 C361.734905,8.77018282 359.634905,7.72472827 357.162178,7.72472827 C355.707632,7.72472827 354.416723,8.04291009 353.289451,8.67927373 C352.143996,9.31563736 351.262178,10.2156374 350.643996,11.3792737 C350.025814,12.5429101 349.716723,13.8701828 349.716723,15.3610919 C349.716723,16.8701828 350.025814,18.1974555 350.643996,19.3429101 C351.262178,20.5065465 352.143996,21.4065465 353.289451,22.0429101 C354.416723,22.6792737 355.707632,22.9974555 357.162178,22.9974555 C359.634905,22.9974555 361.734905,21.952001 363.462178,19.8610919 L368.262178,24.2247283 C366.971269,25.8610919 365.343996,27.1065465 363.38036,27.9610919 C361.416723,28.8338192 359.216723,29.2701828 356.78036,29.2701828 Z M371.616723,28.7247283 L371.616723,1.99745555 L379.198541,1.99745555 L379.198541,22.7247283 L391.934905,22.7247283 L391.934905,28.7247283 L371.616723,28.7247283 Z M407.262178,29.2701828 C403.28036,29.2701828 400.189451,28.1883646 397.989451,26.0247283 C395.789451,23.8610919 394.689451,20.7883646 394.689451,16.8065465 L394.689451,1.99745555 L402.243996,1.99745555 L402.243996,16.5883646 C402.243996,20.8610919 403.934905,22.9974555 407.316723,22.9974555 C410.68036,22.9974555 412.362178,20.8610919 412.362178,16.5883646 L412.362178,1.99745555 L419.807632,1.99745555 L419.807632,16.8065465 C419.807632,20.7883646 418.707632,23.8610919 416.507632,26.0247283 C414.307632,28.1883646 411.225814,29.2701828 407.262178,29.2701828 Z M445.471269,14.7883646 C446.998541,15.3338192 448.198541,16.1701828 449.071269,17.2974555 C449.925814,18.4247283 450.353087,19.7883646 450.353087,21.3883646 C450.353087,23.7338192 449.416723,25.5429101 447.543996,26.8156374 C445.653087,28.0883646 442.925814,28.7247283 439.362178,28.7247283 L424.934905,28.7247283 L424.934905,1.99745555 L438.598541,1.99745555 C442.016723,1.99745555 444.616723,2.63381918 446.398541,3.90654645 C448.18036,5.16109191 449.071269,6.852001 449.071269,8.97927373 C449.071269,10.252001 448.753087,11.3974555 448.116723,12.4156374 C447.498541,13.4156374 446.616723,14.2065465 445.471269,14.7883646 Z M437.616723,7.452001 L432.407632,7.452001 L432.407632,12.6065465 L437.616723,12.6065465 C440.162178,12.6065465 441.434905,11.7429101 441.434905,10.0156374 C441.434905,8.30654645 440.162178,7.452001 437.616723,7.452001 Z M438.762178,23.2701828 C441.398541,23.2701828 442.716723,22.3701828 442.716723,20.5701828 C442.716723,18.752001 441.398541,17.8429101 438.762178,17.8429101 L432.407632,17.8429101 L432.407632,23.2701828 L438.762178,23.2701828 Z" id="Shape"></path>
        </g>
    </g>
</svg>